<svg xmlns="http://www.w3.org/2000/svg" width="18" height="18" viewBox="0 0 18 18">
  <g id="bb-icon" transform="translate(-1223 -332)">
    <path id="矩形_659" data-name="矩形 659" d="M2,1A1,1,0,0,0,1,2V12a1,1,0,0,0,1,1H16a1,1,0,0,0,1-1V2a1,1,0,0,0-1-1H2M2,0H16a2,2,0,0,1,2,2V12a2,2,0,0,1-2,2H2a2,2,0,0,1-2-2V2A2,2,0,0,1,2,0Z" transform="translate(1223 332)"/>
    <path id="直线_68" data-name="直线 68" d="M.5,5h-1V0h1Z" transform="translate(1231.5 345)"/>
    <path id="直线_69" data-name="直线 69" d="M10,.5H0A.5.5,0,0,1-.5,0,.5.5,0,0,1,0-.5H10a.5.5,0,0,1,.5.5A.5.5,0,0,1,10,.5Z" transform="translate(1226.5 349.5)"/>
    <path id="路径_14" data-name="路径 14" d="M-17899.361,3341.5a.5.5,0,0,1-.359-.152.5.5,0,0,1,.012-.707l4.84-4.687.344.42,2.748,3.352,3.533-3.4a.5.5,0,0,1,.707.014.5.5,0,0,1-.016.707l-4.311,4.146-3.092-3.77-4.059,3.931A.5.5,0,0,1-17899.361,3341.5Z" transform="translate(19125.861 -3000.191)"/>
  </g>
</svg>
